<svg width="173" height="50" viewBox="0 0 173 50" fill="none" xmlns="http://www.w3.org/2000/svg">
<g clip-path="url(#clip0_810_21167)">
<path d="M40.7511 9.14453H9.03442V43.5552H40.7511V9.14453Z" fill="#594483"/>
<mask id="mask0_810_21167" style="mask-type:luminance" maskUnits="userSpaceOnUse" x="0" y="0" width="173" height="50">
<path d="M173 0.019043H0V50H173V0.019043Z" fill="white"/>
</mask>
<g mask="url(#mask0_810_21167)">
<path d="M36.2243 15.8175C32.1107 15.8175 28.7661 19.1255 28.7661 23.1844V28.5932H24.5756V23.1844C24.5756 16.8441 29.8041 11.6825 36.2243 11.6825V15.8175ZM31.4668 24.4867C31.4668 23.327 32.4279 22.386 33.5716 22.386C34.7153 22.386 35.7245 23.327 35.7245 24.4867C35.7245 25.6464 34.7634 26.5875 33.5716 26.5875C32.3798 26.5875 31.4668 25.6464 31.4668 24.4867ZM28.7853 36.616C28.7853 36.616 28.7661 36.616 28.7564 36.616L28.7757 40.751H26.4498C18.2611 40.751 11.6006 34.173 11.6006 26.0837V11.5495H15.7911V26.0932C15.7911 31.9012 20.5774 36.616 26.4498 36.616H28.7468V32.4525C28.7468 32.4525 28.7661 32.4525 28.7757 32.4525C30.5537 32.4525 32.1107 31.54 33.0142 30.1711L36.0321 33.1559C34.3309 35.2662 31.7167 36.616 28.7757 36.616M20.4717 22.386C21.6731 22.386 22.6246 23.327 22.6246 24.4867C22.6246 25.6464 21.6634 26.5875 20.4717 26.5875C19.2799 26.5875 18.3668 25.6464 18.3668 24.4867C18.3668 23.327 19.3279 22.386 20.4717 22.386ZM49.2473 6.38786C48.1132 4.19205 46.3159 2.40497 44.0958 1.29281C41.5777 0.0190431 38.2714 0.019043 31.6686 0.019043H18.8666C12.2638 0.019043 8.95756 0.0190431 6.43944 1.29281C4.21928 2.41448 2.41239 4.19205 1.28789 6.38786C0 8.88786 0 12.1483 0 18.6787V31.3403C0 37.8803 0 41.1407 1.28789 43.6407C2.422 45.8365 4.21928 47.6236 6.43944 48.7358C8.95756 50.0095 12.2638 50.0095 18.8666 50.0095H31.6686C38.2714 50.0095 41.5777 50.0095 44.0958 48.7358C46.3159 47.6141 48.1228 45.8365 49.2473 43.6407C50.5352 41.1502 50.5352 37.8803 50.5352 31.3498V18.6882C50.5352 12.1578 50.5352 8.88787 49.2473 6.39737" fill="#FFFBF8"/>
<path d="M165.955 18.5172L161.813 31.8347L156.93 18.5172H149.664L158.42 39.2871C157.449 41.9392 155.998 42.8993 152.922 42.8993V48.9924C159.083 49.2966 163.004 46.559 165.465 39.6293L172.99 18.5172H165.945H165.955ZM133.652 27.1388C134.267 24.9145 135.94 23.6978 138.448 23.6978C140.957 23.6978 142.408 24.6103 143.109 27.1388H133.642H133.652ZM133.777 32.0153H149.405C149.578 31.1883 149.664 30.3137 149.664 29.4012C149.664 22.8232 144.907 17.9088 138.486 17.9088C132.066 17.9088 126.78 22.9183 126.78 29.4012C126.78 35.8841 131.442 40.8936 138.977 40.8936C146.512 40.8936 146.416 39.3727 148.569 36.4069L143.282 33.4031C142.398 34.3632 140.86 35.0571 139.054 35.0571C137.247 35.0571 134.604 34.2776 133.767 32.0058M119.476 18.5172L114.901 32.3194L110.326 18.5172H103.021L111.162 40.2852H118.649L126.79 18.5172H119.485H119.476ZM91.344 34.5438C88.4799 34.5438 86.2789 32.5 86.2789 29.4107C86.2789 26.3213 88.4799 24.2776 91.344 24.2776C94.2081 24.2776 96.409 26.3213 96.409 29.4107C96.409 32.5 94.2081 34.5438 91.344 34.5438ZM91.344 40.8936C97.8122 40.8936 103.012 35.8841 103.012 29.4012C103.012 22.9183 97.8219 17.9088 91.344 17.9088C84.8661 17.9088 79.6761 22.9183 79.6761 29.4012C79.6761 35.8841 84.8661 40.8936 91.344 40.8936ZM67.3546 33.5837V9.80994H60.3097V40.2852H78.3594V33.5837H67.3546Z" fill="#FFFBF8"/>
</g>
</g>
<defs>
<clipPath id="clip0_810_21167">
<rect width="173" height="50" fill="white"/>
</clipPath>
</defs>
</svg>
