<svg width="123" height="36" viewBox="0 0 123 36" fill="none" xmlns="http://www.w3.org/2000/svg">
<g clip-path="url(#clip0_910_7510)">
<mask id="mask0_910_7510" style="mask-type:luminance" maskUnits="userSpaceOnUse" x="0" y="0" width="123" height="36">
<path d="M123 0.0136719H0V36H123V0.0136719Z" fill="white"/>
</mask>
<g mask="url(#mask0_910_7510)">
<path d="M25.7548 11.3886C22.8302 11.3886 20.4522 13.7703 20.4522 16.6928V20.5871H17.4728V16.6928C17.4728 12.1277 21.1902 8.41139 25.7548 8.41139V11.3886ZM22.3723 17.6304C22.3723 16.7954 23.0557 16.1179 23.8688 16.1179C24.682 16.1179 25.3995 16.7954 25.3995 17.6304C25.3995 18.4654 24.7162 19.1429 23.8688 19.1429C23.0215 19.1429 22.3723 18.4654 22.3723 17.6304ZM20.4658 26.3635C20.4658 26.3635 20.4522 26.3635 20.4453 26.3635L20.459 29.3407H18.8053C12.9833 29.3407 8.24783 24.6045 8.24783 18.7802V8.31557H11.2272V18.7871C11.2272 22.9688 14.6302 26.3635 18.8053 26.3635H20.4385V23.3658C20.4385 23.3658 20.4522 23.3658 20.459 23.3658C21.7232 23.3658 22.8302 22.7087 23.4725 21.7232L25.6182 23.8722C24.4087 25.3916 22.55 26.3635 20.459 26.3635M14.555 16.1179C15.4092 16.1179 16.0857 16.7954 16.0857 17.6304C16.0857 18.4654 15.4023 19.1429 14.555 19.1429C13.7077 19.1429 13.0585 18.4654 13.0585 17.6304C13.0585 16.7954 13.7418 16.1179 14.555 16.1179ZM35.014 4.59922C34.2077 3.01823 32.9298 1.73154 31.3513 0.930782C29.561 0.0136719 27.2103 0.0136719 22.5158 0.0136719H13.4138C8.71933 0.0136719 6.36867 0.0136719 4.57833 0.930782C2.99983 1.73839 1.71517 3.01823 0.915667 4.59922C0 6.39922 0 8.74675 0 13.4487V22.565C0 27.2737 0 29.6213 0.915667 31.4213C1.722 33.0023 2.99983 34.289 4.57833 35.0897C6.36867 36.0068 8.71933 36.0068 13.4138 36.0068H22.5158C27.2103 36.0068 29.561 36.0068 31.3513 35.0897C32.9298 34.2821 34.2145 33.0023 35.014 31.4213C35.9297 29.6281 35.9297 27.2737 35.9297 22.5718V13.4555C35.9297 8.7536 35.9297 6.39922 35.014 4.60607" fill="#594483"/>
<path d="M117.991 13.3322L115.046 22.9208L111.575 13.3322H106.409L112.634 28.2866C111.944 30.1961 110.912 30.8873 108.725 30.8873V35.2744C113.105 35.4934 115.893 33.5223 117.643 28.533L122.993 13.3322H117.984H117.991ZM95.0243 19.5398C95.4616 17.9383 96.6506 17.0622 98.4341 17.0622C100.218 17.0622 101.249 17.7193 101.748 19.5398H95.0175H95.0243ZM95.1131 23.0508H106.224C106.347 22.4554 106.409 21.8257 106.409 21.1687C106.409 16.4326 103.026 12.8942 98.4615 12.8942C93.8968 12.8942 90.1385 16.501 90.1385 21.1687C90.1385 25.8364 93.4526 29.4432 98.81 29.4432C104.167 29.4432 104.099 28.3482 105.63 26.2128L101.871 24.0501C101.243 24.7413 100.149 25.2409 98.8647 25.2409C97.58 25.2409 95.7008 24.6797 95.1063 23.044M84.9451 13.3322L81.6925 23.2698L78.4398 13.3322H73.2465L79.0343 29.0052H84.3575L90.1453 13.3322H84.952H84.9451ZM64.944 24.8714C62.9076 24.8714 61.3428 23.3999 61.3428 21.1755C61.3428 18.9512 62.9076 17.4797 64.944 17.4797C66.9803 17.4797 68.5451 18.9512 68.5451 21.1755C68.5451 23.3999 66.9803 24.8714 64.944 24.8714ZM64.944 29.4432C69.5428 29.4432 73.2397 25.8364 73.2397 21.1687C73.2397 16.501 69.5497 12.8942 64.944 12.8942C60.3383 12.8942 56.6483 16.501 56.6483 21.1687C56.6483 25.8364 60.3383 29.4432 64.944 29.4432ZM47.888 24.1801V7.06299H42.8792V29.0052H55.7121V24.1801H47.888Z" fill="#594483"/>
</g>
</g>
<defs>
<clipPath id="clip0_910_7510">
<rect width="123" height="36" fill="white"/>
</clipPath>
</defs>
</svg>
