<svg width="32" height="32" viewBox="0 0 36 36" fill="none" xmlns="http://www.w3.org/2000/svg">
  <path d="M25.7548 11.3886C22.8302 11.3886 20.4522 13.7703 20.4522 16.6928V20.5871H17.4728V16.6928C17.4728 12.1277 21.1902 8.41139 25.7548 8.41139V11.3886ZM22.3723 17.6304C22.3723 16.7954 23.0557 16.1179 23.8688 16.1179C24.682 16.1179 25.3995 16.7954 25.3995 17.6304C25.3995 18.4654 24.7162 19.1429 23.8688 19.1429C23.0215 19.1429 22.3723 18.4654 22.3723 17.6304ZM20.4658 26.3635C20.4658 26.3635 20.4522 26.3635 20.4453 26.3635L20.459 29.3407H18.8053C12.9833 29.3407 8.24783 24.6045 8.24783 18.7802V8.31557H11.2272V18.7871C11.2272 22.9688 14.6302 26.3635 18.8053 26.3635H20.4385V23.3658C20.4385 23.3658 20.4522 23.3658 20.459 23.3658C21.7232 23.3658 22.8302 22.7087 23.4725 21.7232L25.6182 23.8722C24.4087 25.3916 22.55 26.3635 20.459 26.3635M14.555 16.1179C15.4092 16.1179 16.0857 16.7954 16.0857 17.6304C16.0857 18.4654 15.4023 19.1429 14.555 19.1429C13.7077 19.1429 13.0585 18.4654 13.0585 17.6304C13.0585 16.7954 13.7418 16.1179 14.555 16.1179ZM35.014 4.59922C34.2077 3.01823 32.9298 1.73154 31.3513 0.930782C29.561 0.0136719 27.2103 0.0136719 22.5158 0.0136719H13.4138C8.71933 0.0136719 6.36867 0.0136719 4.57833 0.930782C2.99983 1.73839 1.71517 3.01823 0.915667 4.59922C0 6.39922 0 8.74675 0 13.4487V22.565C0 27.2737 0 29.6213 0.915667 31.4213C1.722 33.0023 2.99983 34.289 4.57833 35.0897C6.36867 36.0068 8.71933 36.0068 13.4138 36.0068H22.5158C27.2103 36.0068 29.561 36.0068 31.3513 35.0897C32.9298 34.2821 34.2145 33.0023 35.014 31.4213C35.9297 29.6281 35.9297 27.2737 35.9297 22.5718V13.4555C35.9297 8.7536 35.9297 6.39922 35.014 4.60607" fill="#594483"/>
</svg>
